# AST/ASF file generated using VICON BodyLanguage
# -----------------------------------------------
:version 1.10
:name VICON
:units
  mass 1.0
  length 0.45
  angle deg
:documentation
   .ast/.asf automatically generated from VICON data using
   VICON BodyBuilder and BodyLanguage model FoxedUp or BRILLIANT.MOD
:root
   order TX TY TZ RX RY RZ
   axis XYZ
   position 0 0 0  
   orientation 0 0 0 
:bonedata
  begin
     id 1 
     name lhipjoint
     direction 0.54267 -0.795011 0.271047 
     length 2.39899 
     axis 0 0 0  XYZ
  end
  begin
     id 2 
     name lfemur
     direction 0.34202 -0.939693 0  
     length 7.49701  
     axis 0 0 20  XYZ
    dof rx ry rz
    limits (-160.0 20.0)
           (-70.0 70.0)
           (-60.0 70.0)
  end
  begin
     id 3 
     name ltibia
     direction 0.34202 -0.939693 0   
     length 8.1668   
     axis 0 0 20   XYZ
    dof rx
    limits (-10.0 170.0)
  end
  begin
     id 4 
     name lfoot
     direction 0.0736283 -0.202292 0.976554   
     length 2.13544   
     axis -90 7.62852e-016 20   XYZ
    dof rx rz
    limits (-45.0 90.0)
           (-70.0 20.0)
  end
  begin
     id 5 
     name ltoes
     direction 1.53557e-011 -4.22024e-011 1   
     length 1.07411   
     axis -90 7.62852e-016 20   XYZ
    dof rx
    limits (-90.0 20.0)
  end
  begin
     id 6 
     name rhipjoint
     direction -0.538061 -0.797813 0.272002   
     length 2.39057  
     axis 0 0 0  XYZ 
  end
  begin
     id 7 
     name rfemur
     direction -0.34202 -0.939693 0   
     length 7.50152   
     axis 0 0 -20   XYZ
    dof rx ry rz
    limits (-160.0 20.0)
           (-70.0 70.0)
           (-70.0 60.0)
  end
  begin
     id 8 
     name rtibia
     direction -0.34202 -0.939693 0   
     length 8.05793   
     axis 0 0 -20   XYZ
    dof rx
    limits (-10.0 170.0)
 end
 begin
     id 9 
     name rfoot
     direction -0.0765195 -0.210236 0.974652   
     length 2.28698  
     axis -90 -7.62852e-016 -20   XYZ
    dof rx rz
    limits (-45.0 90.0)
           (-20.0 70.0)
  end
  begin
     id 10 
     name rtoes
     direction -1.53542e-011 -4.21847e-011 1   
     length 1.14762   
     axis -90 -7.62852e-016 -20   XYZ
    dof rx
    limits (-90.0 20.0)
  end
  begin
     id 11 
     name lowerback
     direction -0.0217239 0.996592 -0.0795765   
     length 2.08176   
     axis 0 0 0   XYZ
    dof rx ry rz
    limits (-20.0 45.0)
           (-30.0 30.0)
           (-30.0 30.0)
  end
  begin
     id 12 
     name upperback
     direction -0.00563773 0.999651 -0.0258155   
     length 2.08898   
     axis 0 0 0   XYZ
    dof rx ry rz
    limits (-20.0 45.0)
           (-30.0 30.0)
           (-30.0 30.0)
  end
  begin
     id 13 
     name thorax
     direction 0.0032706 0.999923 0.0119599   
     length 2.0968   
     axis 0 0 0   XYZ
    dof rx ry rz
    limits (-20.0 45.0)
           (-30.0 30.0)
           (-30.0 30.0)
  end
  begin
     id 14 
     name lowerneck
     direction -0.0285886 0.99568 0.0883427   
     length 1.81272   
     axis 0 0 0   XYZ
    dof rx ry rz
    limits (-20.0 45.0)
           (-30.0 30.0)
           (-30.0 30.0)
  end
  begin
     id 15 
     name upperneck
     direction 0.0807535 0.97985 -0.18268   
     length 1.82518   
     axis 0 0 0   XYZ
    dof rx ry rz
    limits (-20.0 45.0)
           (-30.0 30.0)
           (-30.0 30.0)
  end
  begin
     id 16
     name head
     direction 0.0236605 0.997053 -0.0729767  
     length 1.84443  
     axis 0 0 0   XYZ
    dof rx ry rz
    limits (-20.0 45.0)
           (-30.0 30.0)
           (-30.0 30.0)
  end
  begin
     id 17 
     name lclavicle
     direction 0.918986 0.39378 -0.0200683  
     length 3.27822  
     axis 0 0 0   XYZ
    dof ry rz
    limits (-20.0 10.0)
           (0.0 20.0)
  end
  begin
     id 18 
     name lhumerus
     direction 1 -4.4897e-011 2.09544e-027   
     length 5.5568   
     axis 180 -30 -90   XYZ
    dof rx ry rz
    limits (-60.0 90.0)
           (-90.0 90.0)
           (-90.0 90.0)
  end
  begin
     id 19
     name lradius
     direction 1 -4.48957e-011 -1.27696e-026   
     length 3.63979   
     axis 180 -30 -90   XYZ
    dof rx
    limits (-10.0 170.0)
  end
  begin
     id 20
     name lwrist
     direction 1 -4.49001e-011 -1.49001e-026   
     length 1.8199   
     axis 9.0955e-015 90 90   XYZ
    dof ry
    limits (-180.0 0.0)
 end
  begin
     id 21 
     name lhand
     direction 1 -4.48709e-011 -2.9758e-026   
     length 0.569419   
     axis 1.90115e-014 90 90   XYZ
    dof rx rz
    limits (-90.0 90.0)
           (-45.0 45.0)
  end
  begin
     id 22 
     name lfingers
     direction 1 -4.49175e-011 -5.96505e-026   
     length 0.45908   
     axis 3.80223e-014 90 90   XYZ
    dof rx
    limits (0.0 90.0)
  end
  begin
     id 23
     name lthumb
     direction 0.707107 -6.34864e-011 0.707107   
     length 0.65915   
     axis -90 45 -3.84942e-014   XYZ
    dof rx rz
    limits (-45.0 45.0)
           (-45.0 45.0)
  end
  begin
     id 24 
     name rclavicle
     direction -0.911913 0.396426 -0.106115   
     length 3.46301  
     axis 0 0 0   XYZ 
    dof ry rz
    limits (-10.0 20.0)
           (-20.0 0.0)
  end
  begin
     id 25 
     name rhumerus
     direction -1 -4.48965e-011 7.78516e-028  
     length 5.34339   
     axis 180 30 90   XYZ
    dof rx ry rz
    limits (-90.0 60.0)
           (-90.0 90.0)
           (-90.0 90.0)
  end
  begin
     id 26 
     name rradius
     direction -1 -4.48948e-011 -5.79823e-027   
     length 3.65101   
     axis 180 30 90   XYZ
    dof rx
    limits (-10.0 170.0)
  end
  begin
     id 27 
     name rwrist
     direction -1 -4.48995e-011 -1.48996e-026   
     length 1.8255   
     axis 9.0955e-015 -90 -90   XYZ
    dof ry
    limits (-180.0 0.0)
  end
  begin
     id 28
     name rhand
     direction -1 -4.48957e-011 -2.97937e-026   
     length 0.694249   
     axis 1.90115e-014 -90 -90   XYZ
    dof rx rz
    limits (-90.0 90.0)
           (-45.0 45.0)
  end
  begin
     id 29
     name rfingers
     direction -1 -4.4898e-011 -5.95943e-026   
     length 0.559721   
     axis 3.80223e-014 -90 -90   XYZ
    dof rx
    limits (0.0 90.0)
  end
  begin
     id 30
     name rthumb
     direction -0.707107 -6.34969e-011 0.707107   
     length 0.803651   
     axis -90 -45 3.84942e-014   XYZ
    dof rx rz
    limits (-45.0 45.0)
           (-45.0 45.0)
  end
:hierarchy
  begin
    root lhipjoint rhipjoint lowerback
    lhipjoint lfemur
    lfemur ltibia
    ltibia lfoot
    lfoot ltoes
    rhipjoint rfemur
    rfemur rtibia
    rtibia rfoot
    rfoot rtoes
    lowerback upperback
    upperback thorax
    thorax lowerneck lclavicle rclavicle
    lowerneck upperneck
    upperneck head
    lclavicle lhumerus
    lhumerus lradius
    lradius lwrist
    lwrist lhand lthumb
    lhand lfingers
    rclavicle rhumerus
    rhumerus rradius
    rradius rwrist
    rwrist rhand rthumb
    rhand rfingers
  end

#!OML:ASF H:\Terrain\Walking\May29\JustinRory\rory.ASF
:FULLY-SPECIFIED
:DEGREES
143
root 14.1586 12.8717 3.92964 184.08 -19.1296 178.545
lowerback 47.054 8.22191 7.92766
upperback 9.89632 9.85498 -4.08356
thorax -8.27056 3.39871 -12.5288
lowerneck 5.15977 15.2246 16.4415
upperneck 23.862 24.3129 -21.8104
head 11.9673 11.3026 -8.04255
rclavicle -3.18055e-015 -4.13472e-014
rhumerus -2.538 0.540719 -50.5028
rradius 44.7338
rwrist 3.92441
rhand -3.50901 390.128
rfingers 7.12502
rthumb 22.2254 1.38599
lclavicle -3.18055e-015 -4.13472e-014
lhumerus -15.0847 4.55462 78.2194
lradius 96.4282
lwrist 7.40967
lhand -20.9135 25.179
lfingers 7.12502
lthumb 5.45789 55.0887
rfemur -61.7875 -14.0006 6.11089
rtibia 103.219
rfoot -28.5063 -19.2728
rtoes -21.2197
lfemur -66.5501 14.7267 1.55098
ltibia 93.2772
lfoot -22.5265 2.27644
ltoes -28.4074
144
root 14.0904 12.9377 3.89797 184.553 -20.0394 177.267
lowerback 46.6054 8.29627 6.74662
upperback 10.0117 9.3789 -4.13802
thorax -8.29614 3.18468 -11.7741
lowerneck 3.87939 16.4194 15.0685
upperneck 25.7836 25.6612 -19.5447
head 12.73 11.7633 -6.61491
rclavicle -1.43125e-013 3.89618e-014
rhumerus -2.37112 1.42559 -50.0775
rradius 44.5396
rwrist 3.84061
rhand -3.29104 390.184
rfingers 7.12502
rthumb 22.4346 1.46647
lclavicle -1.43125e-013 3.89618e-014
lhumerus -15.3084 5.54461 78.7217
lradius 96.7022
lwrist 8.26469
lhand -21.3779 26.2149
lfingers 7.12502
lthumb 5.00947 56.1356
rfemur -60.614 -15.1955 4.21536
rtibia 102.74
rfoot -29.3466 -18.1895
rtoes -18.7919
lfemur -65.5151 13.0612 0.626969
ltibia 92.4589
lfoot -22.4933 3.01461
ltoes -28.8675
145
root 14.0428 13.0115 3.8528 184.118 -20.5004 177.017
lowerback 51.905 7.23317 8.31738
upperback 6.31087 9.12334 -6.86334
thorax -11.7312 2.86392 -15.5807
lowerneck 6.76973 14.6249 18.48
upperneck 22.7056 23.3579 -21.4844
head 11.1868 11.1909 -8.47854
rclavicle -2.70347e-014 5.56597e-015
rhumerus -7.1206 0.365781 -52.9042
rradius 44.8975
rwrist 4.60361
rhand -4.2466 389.816
rfingers 7.12502
rthumb 21.5171 0.991472
lclavicle -2.70347e-014 5.56597e-015
lhumerus -16.9367 2.37411 75.9947
lradius 96.6761
lwrist 9.58245
lhand -22.3964 26.9145
lfingers 7.12502
lthumb 4.02603 56.8562
rfemur -58.8915 -15.122 3.5556
rtibia 102.098
rfoot -32.4108 -15.223
rtoes -5.55541
lfemur -63.5471 12.228 0.913829
ltibia 91.1296
lfoot -22.225 3.88467
ltoes -30.8034
146
root 13.987 13.0189 3.83327 183.701 -20.8091 178.323
lowerback 46.9976 7.86774 7.732
upperback 9.8547 9.20469 -5.02323
thorax -8.36162 3.13109 -13.2459
lowerneck 4.47795 15.9606 16.3874
upperneck 22.8556 25.2965 -21.9884
head 11.9666 11.7442 -7.77747
rclavicle -3.02153e-014 5.08889e-014
rhumerus -3.20161 0.868223 -51.6027
rradius 44.375
rwrist 4.42353
rhand -4.74958 389.738
rfingers 7.12502
rthumb 21.034 0.858317
lclavicle -3.02153e-014 5.08889e-014
lhumerus -14.2096 6.00302 78.3046
lradius 95.8487
lwrist 8.63647
lhand -24.1407 27.1284
lfingers 7.12502
lthumb 2.34143 57.0953
rfemur -58.5567 -14.6971 4.72124
rtibia 101.821
rfoot -33.7428 -13.6865
rtoes 2.591
lfemur -62.7523 12.4456 2.74078
ltibia 89.8181
lfoot -21.4114 3.61642
ltoes -31.5276
147
root 13.9285 13.0794 3.81316 183.789 -21.3483 178.031
lowerback 47.8557 7.21266 8.43625
upperback 9.41681 8.59045 -6.50759
thorax -8.97852 2.83977 -15.1929
lowerneck 5.25158 15.5801 17.1391
upperneck 20.6961 24.5991 -22.2738
head 10.9454 11.6292 -8.10891
rclavicle 6.99722e-014 -1.51076e-014
rhumerus -4.25686 -0.619219 -53.6281
rradius 44.2949
rwrist 5.06183
rhand -4.28698 390.076
rfingers 7.12502
rthumb 21.4784 1.24637
lclavicle 6.99722e-014 -1.51076e-014
lhumerus -13.5151 5.47774 77.0807
lradius 95.1149
lwrist 8.39814
lhand -25.6259 27.7896
lfingers 7.12502
lthumb 0.907057 57.7674
rfemur -57.6306 -14.8377 4.05049
rtibia 101.321
rfoot -33.9172 -13.5897
rtoes 3.00973
lfemur -61.3227 11.419 2.84412
ltibia 87.9921
lfoot -20.3868 3.85079
ltoes -34.1938
148
root 13.8545 13.1097 3.7904 183.782 -21.9524 177.823
lowerback 46.8091 7.86106 6.7878
upperback 9.89391 8.72201 -5.17282
thorax -8.49444 2.89884 -12.7288
lowerneck 5.42238 15.8266 15.4347
upperneck 19.9538 25.0832 -23.5104
head 10.7143 11.7125 -8.24101
rclavicle -9.78021e-014 3.73715e-014
rhumerus -3.08429 0.827911 -51.6634
rradius 44.1617
rwrist 4.36044
rhand -3.98966 389.866
rfingers 7.12502
rthumb 21.7639 1.07
lclavicle -9.78021e-014 3.73715e-014
lhumerus -13.3199 7.75144 79.3409
lradius 94.6732
lwrist 8.70016
lhand -26.4563 28.6303
lfingers 7.12502
lthumb 0.105051 58.61
rfemur -56.5409 -15.1058 3.29087
rtibia 100.958
rfoot -34.3145 -13.0323
rtoes 4.3021
lfemur -60.0362 10.2806 2.97112
ltibia 86.6087
lfoot -19.0056 4.87448
ltoes -43.6893
149
root 13.7753 13.1148 3.78269 184.72 -22.6211 177.171
lowerback 46.9669 6.87483 7.63487
upperback 9.43522 7.72 -7.15205
thorax -9.00935 2.47602 -15.13
lowerneck 5.3221 16.1297 15.876
upperneck 19.0501 25.1922 -22.4573
head 10.2993 11.898 -7.81853
rclavicle -1.22451e-013 1.66184e-013
rhumerus -4.04922 -0.62123 -54.2904
rradius 44.0662
rwrist 4.85099
rhand -4.07995 389.685
rfingers 7.12502
rthumb 21.6772 0.878964
lclavicle -1.22451e-013 1.66184e-013
lhumerus -12.5774 7.08442 77.0025
lradius 94.0178
lwrist 10.0508
lhand -26.3547 28.8962
lfingers 7.12502
lthumb 0.203205 58.8758
rfemur -56.6246 -15.8439 2.1428
rtibia 100.788
rfoot -34.5258 -11.961
rtoes 7.4482
lfemur -60.0107 9.22273 2.54741
ltibia 85.9633
lfoot -19.0477 3.73053
ltoes -46.2105
150
root 13.7133 13.0938 3.77482 185.229 -23.0521 178.091
lowerback 44.5013 7.86051 5.90412
upperback 9.87618 8.49755 -5.08771
thorax -8.07089 2.90333 -11.9629
lowerneck 5.30595 16.4091 12.8629
upperneck 18.1576 25.5025 -23.134
head 9.72238 11.8565 -7.57577
rclavicle 3.65764e-014 -4.05521e-014
rhumerus -2.83373 1.15989 -51.5061
rradius 44.1733
rwrist 4.14142
rhand -3.9178 389.362
rfingers 7.12502
rthumb 21.8329 0.573127
lclavicle 3.65764e-014 -4.05521e-014
lhumerus -12.1621 9.51757 80.0382
lradius 93.3053
lwrist 9.97502
lhand -26.2199 28.7289
lfingers 7.12502
lthumb 0.333384 58.7083
rfemur -57.5415 -15.6164 3.01011
rtibia 100.791
rfoot -34.2458 -12.7223
rtoes 7.06802
lfemur -61.6997 10.6692 2.90546
ltibia 86.3567
lfoot -18.6635 2.08659
ltoes -47.3721
151
root 13.6323 13.1141 3.75724 184.705 -23.7912 179.364
lowerback 44.521 6.73912 7.91802
upperback 9.87837 7.87396 -6.14837
thorax -7.84706 2.67948 -13.9806
lowerneck 3.34971 17.4195 12.5708
upperneck 19.5916 26.7497 -21.2896
head 10.5198 12.2933 -6.46101
rclavicle 4.53229e-014 -2.14687e-014
rhumerus -2.84085 0.2682 -53.2964
rradius 43.8823
rwrist 4.07647
rhand -3.21389 389.62
rfingers 7.12502
rthumb 22.5087 0.911464
lclavicle 4.53229e-014 -2.14687e-014
lhumerus -10.9119 9.54691 78.6734
lradius 92.2421
lwrist 10.3408
lhand -26.8458 28.658
lfingers 7.12502
lthumb -0.271155 58.6376
rfemur -56.7807 -15.3571 3.90915
rtibia 100.449
rfoot -32.684 -15.3844
rtoes -2.22839
lfemur -62.4923 11.2987 3.53843
ltibia 86.7854
lfoot -18.2421 0.411574
ltoes -44.2988
152
root 13.5411 13.1689 3.72981 184.539 -24.6393 178.835
lowerback 44.5963 6.67659 7.03107
upperback 10.1003 7.38439 -5.82806
thorax -7.87484 2.41479 -12.9372
lowerneck 2.62254 17.9736 11.7138
upperneck 19.881 27.6366 -21.5793
head 10.8765 12.5517 -6.20913
rclavicle 5.60573e-014 -7.27552e-014
rhumerus -2.13268 1.32963 -52.5299
rradius 43.7868
rwrist 3.06275
rhand -2.39108 389.608
rfingers 7.12502
rthumb 23.2982 0.997317
lclavicle 5.60573e-014 -7.27552e-014
lhumerus -10.2211 11.1177 79.7682
lradius 91.3169
lwrist 10.6446
lhand -27.7139 28.2418
lfingers 7.12502
lthumb -1.10958 58.2187
rfemur -55.1689 -15.6418 2.63192
rtibia 99.9408
rfoot -28.7704 -19.2078
rtoes -18.3187
lfemur -62.5469 10.9121 2.27339
ltibia 87.0568
lfoot -17.9774 0.28559
ltoes -42.0011
153
root 13.4903 13.1965 3.69882 182.731 -24.9375 180.948
lowerback 45.023 6.68607 7.40113
upperback 10.2541 7.6287 -4.86131
thorax -7.80329 2.47371 -12.1275
lowerneck 2.72969 18.1749 11.4357
upperneck 18.9464 28.1247 -23.2029
head 10.8802 12.7283 -6.64322
rclavicle 2.66371e-014 -6.32135e-014
rhumerus -1.43167 2.06034 -52.0231
rradius 43.8369
rwrist 2.82995
rhand -2.71493 389.007
rfingers 7.12502
rthumb 22.9875 0.357868
lclavicle 2.66371e-014 -6.32135e-014
lhumerus -9.43024 12.7213 80.7303
lradius 90.3941
lwrist 10.8801
lhand -28.4123 27.9991
lfingers 7.12502
lthumb -1.78412 57.9714
rfemur -53.5741 -13.8871 4.30714
rtibia 99.6608
rfoot -26.6723 -21.5074
rtoes -23.1146
lfemur -61.9121 12.1968 3.97609
ltibia 87.3347
lfoot -17.497 -0.70733
ltoes -41.3672
154
root 13.4352 13.2732 3.68878 181.754 -25.5487 181.894
lowerback 45.331 6.63862 7.24341
upperback 10.3929 7.54079 -4.17535
thorax -7.83301 2.38146 -11.2391
lowerneck 2.32185 18.4827 8.4911
upperneck 17.771 28.0528 -21.7581
head 9.76308 12.6741 -5.74615
rclavicle -4.6118e-014 -8.34896e-015
rhumerus -0.837034 2.45511 -51.5281
rradius 43.9102
rwrist 2.95588
rhand -2.94046 388.714
rfingers 7.12502
rthumb 22.7711 0.0374256
lclavicle -4.6118e-014 -8.34896e-015
lhumerus -8.56092 14.1066 81.6462
lradius 89.3883
lwrist 11.0973
lhand -28.6668 28.0248
lfingers 7.12502
lthumb -2.02992 57.9949
rfemur -52.0016 -12.7957 4.62795
rtibia 99.1105
rfoot -24.7427 -22.7387
rtoes -26.0276
lfemur -61.6936 12.5361 4.35067
ltibia 87.3983
lfoot -16.9263 -1.39621
ltoes -40.6742
155
root 13.411 13.2553 3.73124 182.876 -26.0426 181.657
lowerback 44.6738 6.86452 5.83939
upperback 10.0956 7.34166 -3.95177
thorax -8.22512 2.28557 -10.191
lowerneck 2.34111 18.8013 7.4787
upperneck 16.9265 28.4886 -22.5351
head 9.52742 12.8406 -5.80376
rclavicle -2.50469e-014 2.22639e-014
rhumerus -0.322373 3.20425 -51.0955
rradius 44.0258
rwrist 2.4853
rhand -2.47441 388.755
rfingers 7.12502
rthumb 23.2183 0.134814
lclavicle -2.50469e-014 2.22639e-014
lhumerus -7.80894 15.4009 82.4162
lradius 88.4707
lwrist 11.3435
lhand -29.2302 28.1555
lfingers 7.12502
lthumb -2.57398 58.1197
rfemur -53.2752 -12.4356 3.90708
rtibia 99.3887
rfoot -28.832 -17.3883
rtoes -9.05396
lfemur -63.8575 13.3338 3.3684
ltibia 87.9799
lfoot -15.7072 -2.35795
ltoes -39.5459
156
root 13.3282 13.3909 3.75548 183.383 -27.0996 181.171
lowerback 44.3604 6.43277 5.1791
upperback 10.0949 6.56956 -3.85839
thorax -8.35937 1.92864 -9.42782
lowerneck 2.20568 19.2615 6.31305
upperneck 16.2659 29.0712 -22.9368
head 9.32066 13.0733 -5.68111
rclavicle 9.14409e-015 1.35174e-014
rhumerus 0.259145 4.11387 -50.7432
rradius 44.3167
rwrist 1.80903
rhand -1.90399 388.239
rfingers 7.12502
rthumb 23.7655 -0.311738
lclavicle 9.14409e-015 1.35174e-014
lhumerus -7.04972 17.1615 83.1252
lradius 87.4542
lwrist 10.4306
lhand -28.9645 28.4362
lfingers 7.12502
lthumb -2.31746 58.4034
rfemur -52.5581 -12.2736 2.69528
rtibia 98.7061
rfoot -23.4342 -20.8755
rtoes -23.7539
lfemur -64.3048 12.1217 2.27093
ltibia 87.9268
lfoot -15.1557 -2.78197
ltoes -36.8577
157
root 13.2522 13.3258 3.70055 182.44 -27.4277 182.021
lowerback 44.7634 6.34931 5.01086
upperback 10.0697 6.38267 -3.68512
thorax -8.56227 1.80415 -9.09104
lowerneck 2.10161 19.7174 5.55096
upperneck 15.6522 29.5845 -22.9431
head 9.096 13.3295 -5.49526
rclavicle 3.12092e-014 -7.21588e-014
rhumerus 0.503577 4.53977 -51.0195
rradius 44.6179
rwrist 1.5318
rhand -1.45762 387.938
rfingers 7.12502
rthumb 24.1935 -0.555734
lclavicle 3.12092e-014 -7.21588e-014
lhumerus -6.03394 19.2228 83.2319
lradius 85.8527
lwrist 7.16453
lhand -24.7892 27.8367
lfingers 7.12502
lthumb 1.71513 57.8095
rfemur -52.1888 -10.8981 2.71417
rtibia 99.2396
rfoot -26.8859 -16.79
rtoes -6.46799
lfemur -64.0989 12.5139 3.56237
ltibia 88.8612
lfoot -13.7743 -6.24796
ltoes -23.4499
